HIERARCHY
ROOT hip
{
  OFFSET 5.51535 103.731 -2.80141
  CHANNELS 6 Xposition Yposition Zposition Zrotation Xrotation Yrotation
  JOINT abdomen
  {
    OFFSET 0 -1.186 -1.5018
    CHANNELS 6 Xposition Yposition Zposition Zrotation Xrotation Yrotation
    JOINT abdomen2
    {
      OFFSET 0 9.964 0.2134
      CHANNELS 6 Xposition Yposition Zposition Zrotation Xrotation Yrotation
      JOINT chest
      {
        OFFSET 0 13.134 -3.2573
        CHANNELS 6 Xposition Yposition Zposition Zrotation Xrotation Yrotation
        JOINT neck
        {
          OFFSET 0 20.686 -1.6905
          CHANNELS 6 Xposition Yposition Zposition Zrotation Xrotation Yrotation
          JOINT head
          {
            OFFSET 0 7.23801 -0.1237
            CHANNELS 6 Xposition Yposition Zposition Zrotation Xrotation Yrotation
            End Site
            {
              OFFSET 0 0 0
            }
          }
        }
        JOINT lCollar
        {
          OFFSET 1.7069 20.075 5.0056
          CHANNELS 6 Xposition Yposition Zposition Zrotation Xrotation Yrotation
          JOINT lShldr
          {
            OFFSET 13.6458 -0.0470195 -4.849
            CHANNELS 6 Xposition Yposition Zposition Zrotation Xrotation Yrotation
            JOINT lForeArm
            {
              OFFSET 28.3255 -0.97589 2.2888
              CHANNELS 6 Xposition Yposition Zposition Zrotation Xrotation Yrotation
              JOINT lHand
              {
                OFFSET 22.1583 -0.529998 10.8316
                CHANNELS 6 Xposition Yposition Zposition Zrotation Xrotation Yrotation
                JOINT lThumb1
                {
                  OFFSET 0.786 0.111997 2.5817
                  CHANNELS 6 Xposition Yposition Zposition Zrotation Xrotation Yrotation
                  JOINT lThumb2
                  {
                    OFFSET 0.360097 -0.877999 4.2331
                    CHANNELS 6 Xposition Yposition Zposition Zrotation Xrotation Yrotation
                    JOINT lThumb2_End
                    {
                      OFFSET 1.8127 -1.21601 2.2227
                      CHANNELS 6 Xposition Yposition Zposition Zrotation Xrotation Yrotation
                      End Site
                      {
                        OFFSET 0.0180981 -0.012195 0.0222007
                      }
                    }
                  }
                }
                JOINT lCarpal1
                {
                  OFFSET 0.9571 1.114 1.7695
                  CHANNELS 6 Xposition Yposition Zposition Zrotation Xrotation Yrotation
                  JOINT lIndex1
                  {
                    OFFSET 4.12461 0.486992 4.1451
                    CHANNELS 6 Xposition Yposition Zposition Zrotation Xrotation Yrotation
                    JOINT lIndex2
                    {
                      OFFSET 3.4052 -1.45401 2.7682
                      CHANNELS 6 Xposition Yposition Zposition Zrotation Xrotation Yrotation
                      JOINT lIndex2_End
                      {
                        OFFSET 1.45309 -1.79499 1.2713
                        CHANNELS 6 Xposition Yposition Zposition Zrotation Xrotation Yrotation
                        End Site
                        {
                          OFFSET 0.0144979 -0.0179083 0.0126995
                        }
                      }
                    }
                  }
                  JOINT lMid1
                  {
                    OFFSET 5.6954 0.209987 2.1184
                    CHANNELS 6 Xposition Yposition Zposition Zrotation Xrotation Yrotation
                    JOINT lMid2
                    {
                      OFFSET 3.9766 -1.53999 2.3863
                      CHANNELS 6 Xposition Yposition Zposition Zrotation Xrotation Yrotation
                      JOINT lMid2_End
                      {
                        OFFSET 1.4042 -1.926 1.125
                        CHANNELS 6 Xposition Yposition Zposition Zrotation Xrotation Yrotation
                        End Site
                        {
                          OFFSET 0.013999 -0.0193044 0.011301
                        }
                      }
                    }
                  }
                }
                JOINT lCarpal2
                {
                  OFFSET 2.0956 0.66 -0.3894
                  CHANNELS 6 Xposition Yposition Zposition Zrotation Xrotation Yrotation
                  JOINT lRing1
                  {
                    OFFSET 5.0395 -0.090013 2.4971
                    CHANNELS 6 Xposition Yposition Zposition Zrotation Xrotation Yrotation
                    JOINT lRing2
                    {
                      OFFSET 3.7921 -1.55199 1.4806
                      CHANNELS 6 Xposition Yposition Zposition Zrotation Xrotation Yrotation
                      JOINT lRing2_End
                      {
                        OFFSET 1.4655 -1.808 0.9609
                        CHANNELS 6 Xposition Yposition Zposition Zrotation Xrotation Yrotation
                        End Site
                        {
                          OFFSET 0.0147015 -0.0181014 0.00959957
                        }
                      }
                    }
                  }
                  JOINT lPinky1
                  {
                    OFFSET 4.9141 -1.269 0.3591
                    CHANNELS 6 Xposition Yposition Zposition Zrotation Xrotation Yrotation
                    JOINT lPinky2
                    {
                      OFFSET 3.1477 -1.685 0.8462
                      CHANNELS 6 Xposition Yposition Zposition Zrotation Xrotation Yrotation
                      JOINT lPinky2_End
                      {
                        OFFSET 0.805498 -1.58501 0.795499
                        CHANNELS 6 Xposition Yposition Zposition Zrotation Xrotation Yrotation
                        End Site
                        {
                          OFFSET 0.00809703 -0.0157944 0.00799848
                        }
                      }
                    }
                  }
                }
              }
            }
          }
        }
        JOINT rCollar
        {
          OFFSET -1.7069 20.075 5.0056
          CHANNELS 6 Xposition Yposition Zposition Zrotation Xrotation Yrotation
          JOINT rShldr
          {
            OFFSET -13.6458 -0.0470107 -4.849
            CHANNELS 6 Xposition Yposition Zposition Zrotation Xrotation Yrotation
            JOINT rForeArm
            {
              OFFSET -28.3255 -0.975895 2.2888
              CHANNELS 6 Xposition Yposition Zposition Zrotation Xrotation Yrotation
              JOINT rHand
              {
                OFFSET -22.1583 -0.530007 10.8316
                CHANNELS 6 Xposition Yposition Zposition Zrotation Xrotation Yrotation
                JOINT rThumb1
                {
                  OFFSET -0.785997 0.112005 2.5817
                  CHANNELS 6 Xposition Yposition Zposition Zrotation Xrotation Yrotation
                  JOINT rThumb2
                  {
                    OFFSET -0.360106 -0.877994 4.2331
                    CHANNELS 6 Xposition Yposition Zposition Zrotation Xrotation Yrotation
                    JOINT rThumb2_End
                    {
                      OFFSET -1.8127 -1.216 2.2227
                      CHANNELS 6 Xposition Yposition Zposition Zrotation Xrotation Yrotation
                      End Site
                      {
                        OFFSET -0.0180972 -0.0121973 0.0222005
                      }
                    }
                  }
                }
                JOINT rCarpal1
                {
                  OFFSET -0.9571 1.114 1.7695
                  CHANNELS 6 Xposition Yposition Zposition Zrotation Xrotation Yrotation
                  JOINT rIndex1
                  {
                    OFFSET -4.1246 0.487011 4.1451
                    CHANNELS 6 Xposition Yposition Zposition Zrotation Xrotation Yrotation
                    JOINT rIndex2
                    {
                      OFFSET -3.4052 -1.45401 2.7682
                      CHANNELS 6 Xposition Yposition Zposition Zrotation Xrotation Yrotation
                      JOINT rIndex2_End
                      {
                        OFFSET -1.4531 -1.795 1.2713
                        CHANNELS 6 Xposition Yposition Zposition Zrotation Xrotation Yrotation
                        End Site
                        {
                          OFFSET -0.0145077 -0.0180048 0.0127017
                        }
                      }
                    }
                  }
                  JOINT rMid1
                  {
                    OFFSET -5.6954 0.210002 2.1184
                    CHANNELS 6 Xposition Yposition Zposition Zrotation Xrotation Yrotation
                    JOINT rMid2
                    {
                      OFFSET -3.9766 -1.54 2.3863
                      CHANNELS 6 Xposition Yposition Zposition Zrotation Xrotation Yrotation
                      JOINT rMid2_End
                      {
                        OFFSET -1.4042 -1.926 1.125
                        CHANNELS 6 Xposition Yposition Zposition Zrotation Xrotation Yrotation
                        End Site
                        {
                          OFFSET -0.0139948 -0.0192916 0.0112994
                        }
                      }
                    }
                  }
                }
                JOINT rCarpal2
                {
                  OFFSET -2.0956 0.66 -0.3894
                  CHANNELS 6 Xposition Yposition Zposition Zrotation Xrotation Yrotation
                  JOINT rRing1
                  {
                    OFFSET -5.03951 -0.0899879 2.4971
                    CHANNELS 6 Xposition Yposition Zposition Zrotation Xrotation Yrotation
                    JOINT rRing2
                    {
                      OFFSET -3.7921 -1.55201 1.4806
                      CHANNELS 6 Xposition Yposition Zposition Zrotation Xrotation Yrotation
                      JOINT rRing2_End
                      {
                        OFFSET -1.4655 -1.808 0.960901
                        CHANNELS 6 Xposition Yposition Zposition Zrotation Xrotation Yrotation
                        End Site
                        {
                          OFFSET -0.0146934 -0.0180999 0.00959832
                        }
                      }
                    }
                  }
                  JOINT rPinky1
                  {
                    OFFSET -4.91411 -1.26899 0.359202
                    CHANNELS 6 Xposition Yposition Zposition Zrotation Xrotation Yrotation
                    JOINT rPinky2
                    {
                      OFFSET -3.14769 -1.68501 0.846199
                      CHANNELS 6 Xposition Yposition Zposition Zrotation Xrotation Yrotation
                      JOINT rPinky2_End
                      {
                        OFFSET -0.805498 -1.585 0.7955
                        CHANNELS 6 Xposition Yposition Zposition Zrotation Xrotation Yrotation
                        End Site
                        {
                          OFFSET -0.00810035 -0.0158035 0.00800029
                        }
                      }
                    }
                  }
                }
              }
            }
          }
        }
      }
    }
  }
  JOINT lThigh
  {
    OFFSET 8.367 -8.2066 0.5982
    CHANNELS 6 Xposition Yposition Zposition Zrotation Xrotation Yrotation
    JOINT lShin
    {
      OFFSET 2.1923 -43.463 -0.4932
      CHANNELS 6 Xposition Yposition Zposition Zrotation Xrotation Yrotation
      JOINT lFoot
      {
        OFFSET 0.733301 -45.8593 -2.6451
        CHANNELS 6 Xposition Yposition Zposition Zrotation Xrotation Yrotation
        End Site
        {
          OFFSET 2.6618 -4.2699 12.3931
        }
      }
    }
  }
  JOINT rThigh
  {
    OFFSET -8.367 -8.2066 0.5982
    CHANNELS 6 Xposition Yposition Zposition Zrotation Xrotation Yrotation
    JOINT rShin
    {
      OFFSET -2.1923 -43.463 -0.4931
      CHANNELS 6 Xposition Yposition Zposition Zrotation Xrotation Yrotation
      JOINT rFoot
      {
        OFFSET -0.733299 -45.8593 -2.6451
        CHANNELS 6 Xposition Yposition Zposition Zrotation Xrotation Yrotation
        End Site
        {
          OFFSET -2.6618 -4.2699 12.3931
        }
      }
    }
  }
}
MOTION
Frames:	4
Frame Time:	0.0333333
-71.2677 74.5218 2.83867 -2.74352 -36.3889 112.129 1.38598e-006 -1.186 -1.5018 2.86414 -3.98169 -1.27352 8.78427e-008 9.96399 0.213402 5.65951 -8.02137 -2.35407 -4.55668e-007 13.134 -3.2573 5.65951 -8.02135 -2.3541 -2.32939e-006 20.686 -1.6905 -0.899651 -13.6116 -22.7509 1.08785e-006 7.23801 -0.123696 31.1149 10.1389 1.2836 1.7069 20.075 5.0056 29.7125 -1.10857 -15.7255 13.6458 -0.0470096 -4.849 -72.1012 8.33794 -9.74761 28.3255 -0.975892 2.28879 -18.2416 25.2858 -17.9543 22.1583 -0.529999 10.8316 34.0414 -2.63039 -43.5841 0.786004 0.111997 2.5817 11.2912 -5.47771 -6.24489 0.360097 -0.878002 4.2331 -7.61303 0.014369 -13.9105 1.8127 -1.21601 2.2227 -3.89152 -0.223849 -7.10994 0.9571 1.114 1.7695 -6.95746e-016 0 1.78906e-015 4.1246 0.486994 4.1451 -7.05826 7.3597 10.6713 3.4052 -1.454 2.7682 -9.19987 3.70648 4.01383 1.4531 -1.79499 1.2713 -10.3134 4.10268 4.53055 5.6954 0.209987 2.1184 -4.72666 5.52181 3.35176 3.9766 -1.53999 2.3863 -13.3896 5.74874 6.13283 1.4042 -1.92599 1.125 -8.11041 3.6892 3.58944 2.0956 0.66 -0.3894 -6.95746e-016 0 1.78906e-015 5.0395 -0.0900154 2.4971 0.2968 -1.18031 -2.24812 3.7921 -1.55199 1.4806 -11.3448 5.34069 5.80354 1.4655 -1.808 0.9609 -6.2841 3.13483 3.11926 4.9141 -1.26901 0.359101 1.71605 -2.37811 3.85505 3.1477 -1.685 0.846201 -8.23128 4.32078 4.09596 0.805498 -1.585 0.7955 -12.5111 6.26122 6.39527 -1.7069 20.075 5.0056 -7.17818 0.51554 -25.5186 -13.6458 -0.0470138 -4.849 50.8425 3.5819 49.5483 -28.3255 -0.975892 2.2888 4.01453 -7.05262 48.1835 -22.1583 -0.530008 10.8316 46.3537 -58.9391 43.7972 -0.786 0.112004 2.5817 -19.2123 49.9311 17.7821 -0.360109 -0.87799 4.23311 -0.518167 0.461443 -1.59087 -1.81269 -1.21601 2.22269 -4.44363 5.02819 -15.268 -0.9571 1.114 1.7695 6.36111e-015 -1.59028e-015 -7.95139e-016 -4.1246 0.487012 4.1451 -23.6186 3.40245 -15.5054 -3.4052 -1.45401 2.7682 39.4981 10.0974 -9.2746 -1.4531 -1.795 1.2713 45.4781 10.9509 -11.1601 -5.6954 0.210001 2.1184 -1.04226 5.4865 -10.0635 -3.9766 -1.54 2.3863 52.3088 13.5301 -14.1043 -1.4042 -1.926 1.125 44.0033 12.3922 -11.1855 -2.0956 0.66 -0.3894 6.36111e-015 -1.59028e-015 -7.95139e-016 -5.03951 -0.0899895 2.49711 16.4925 0.275161 -5.65894 -3.7921 -1.55201 1.48059 37.3339 11.9098 -10.7861 -1.4655 -1.808 0.9609 38.6321 12.1693 -11.2724 -4.9141 -1.26899 0.359198 24.6636 -0.263311 -2.07526 -3.1477 -1.68501 0.846205 30.5289 11.3154 -8.19428 -0.8055 -1.585 0.795501 30.4592 11.296 -8.16986 8.367 -8.2066 0.598201 118.43 -56.2777 85.0564 2.1923 -43.463 -0.493214 -2.78763 78.3148 1.79342 0.733298 -45.8593 -2.6451 -6.68007 -4.50942 -15.4901 -8.367 -8.2066 0.598196 -0.534538 -50.8824 -31.9753 -2.17975 -43.4638 -0.480021 68.3694 73.5 -64.2493 -0.733297 -45.8593 -2.64509 -1.38437 -32.0694 8.97966 
-71.5058 72.9493 1.58581 1.54601 -32.9758 111.693 9.34414e-007 -1.18599 -1.5018 3.18705 -3.61763 -1.25057 2.52052e-007 9.96399 0.213403 6.31332 -7.29856 -2.30419 -3.45774e-007 13.134 -3.2573 6.31331 -7.29857 -2.30419 6.5552e-007 20.686 -1.6905 -0.732029 -7.66813 -18.4586 -2.7706e-007 7.23801 -0.123703 31.3104 8.5089 3.29222 1.7069 20.075 5.0056 29.0454 -0.845954 -14.5857 13.6458 -0.0470141 -4.849 -74.116 9.88652 -12.2574 28.3255 -0.975904 2.28881 -16.5376 23.9668 -15.1377 22.1583 -0.529992 10.8316 32.4693 -3.60737 -41.0656 0.786004 0.111995 2.5817 10.9731 -4.85376 -5.4009 0.360099 -0.878002 4.2331 -7.30903 -0.021797 -13.3533 1.8127 -1.21601 2.2227 -3.52471 -0.223373 -6.44085 0.9571 1.114 1.7695 1.68967e-015 3.18055e-015 -5.96354e-016 4.1246 0.486989 4.1451 -7.71149 7.53272 11.0117 3.4052 -1.45401 2.7682 -9.21624 3.71238 4.02139 1.4531 -1.795 1.2713 -10.4849 4.16273 4.61065 5.69541 0.209987 2.1184 -5.19912 5.71906 3.58818 3.9766 -1.53999 2.3863 -13.3874 5.74793 6.13174 1.4042 -1.926 1.125 -8.25095 3.74759 3.65519 2.0956 0.66 -0.3894 1.68967e-015 3.18055e-015 -5.96354e-016 5.0395 -0.0900096 2.4971 -0.481378 -0.762435 -1.79969 3.7921 -1.55199 1.4806 -11.5204 5.41203 5.89916 1.4655 -1.808 0.960903 -6.61758 3.28904 3.29173 4.9141 -1.269 0.359101 0.776458 -1.90479 3.83843 3.1477 -1.68501 0.846199 -8.54579 4.47059 4.26132 0.805497 -1.585 0.795501 -12.4619 6.24015 6.36832 -1.7069 20.075 5.0056 -2.41156 0.269354 -18.9471 -13.6458 -0.0470129 -4.849 50.6971 2.1608 48.6345 -28.3255 -0.97589 2.2888 5.00085 -4.16777 44.3675 -22.1583 -0.530009 10.8316 38.1221 -52.2241 38.4465 -0.786002 0.112005 2.5817 -19.2123 49.9311 17.7821 -0.360107 -0.877993 4.2331 -0.518164 0.461458 -1.59086 -1.8127 -1.216 2.2227 -4.44363 5.02819 -15.268 -0.9571 1.114 1.7695 3.18055e-015 -1.59028e-015 7.95139e-016 -4.1246 0.487011 4.1451 -23.6186 3.40247 -15.5054 -3.4052 -1.45401 2.76819 39.498 10.0974 -9.27457 -1.4531 -1.795 1.2713 45.4781 10.9508 -11.1601 -5.6954 0.210001 2.1184 -1.04228 5.48652 -10.0635 -3.9766 -1.54 2.3863 52.3088 13.53 -14.1043 -1.4042 -1.926 1.125 44.0033 12.3922 -11.1855 -2.0956 0.66 -0.3894 3.18055e-015 -1.59028e-015 7.95139e-016 -5.03951 -0.0899881 2.49711 16.4925 0.275154 -5.65892 -3.7921 -1.55201 1.4806 37.3339 11.9098 -10.7861 -1.4655 -1.808 0.960903 38.6321 12.1693 -11.2724 -4.91411 -1.26899 0.359201 24.6636 -0.263298 -2.07526 -3.1477 -1.68501 0.846198 30.529 11.3152 -8.19427 -0.805499 -1.585 0.795498 30.4592 11.2958 -8.16993 8.367 -8.2066 0.598199 112.334 -56.1632 79.3664 2.1923 -43.463 -0.49321 -4.06621 83.5343 3.44755 0.733302 -45.8593 -2.6451 -3.91373 -7.77899 -15.0799 -8.367 -8.2066 0.598202 -2.74804 -46.7386 -29.8488 -2.18962 -43.4632 -0.490221 79.9362 74.07 -75.7221 -0.733305 -45.8593 -2.64511 -1.72819 -33.9292 10.0988 
-71.9776 71.1608 0.127454 4.12929 -30.3779 109.735 3.36994e-007 -1.186 -1.5018 3.76283 -3.33924 -1.10385 -3.04563e-006 9.964 0.213403 7.4799 -6.74331 -1.99051 2.19048e-007 13.134 -3.2573 7.4799 -6.74332 -1.99049 -2.84124e-007 20.686 -1.6905 -0.559483 -2.2492 -14.0158 1.4795e-006 7.23801 -0.123696 29.3284 6.36808 5.18915 1.7069 20.075 5.0056 27.7188 -0.896252 -14.8443 13.6458 -0.0470145 -4.849 -75.4027 10.7536 -14.5627 28.3255 -0.975905 2.28879 -15.6189 22.1476 -12.0106 22.1583 -0.529986 10.8316 32.7071 -3.99957 -40.034 0.786004 0.111996 2.5817 10.6097 -4.20398 -4.48674 0.360098 -0.877999 4.2331 -6.9796 -0.0576133 -12.7499 1.8127 -1.21601 2.2227 -3.1315 -0.218124 -5.72353 0.9571 1.114 1.7695 -9.93923e-016 6.36111e-015 5.96354e-016 4.1246 0.486991 4.1451 -8.33453 7.69509 11.3377 3.4052 -1.45401 2.7682 -9.2249 3.71551 4.02538 1.4531 -1.79499 1.2713 -10.6565 4.22253 4.69094 5.6954 0.209988 2.1184 -5.63957 5.90084 3.80968 3.9766 -1.53999 2.3863 -13.3852 5.74715 6.13066 1.4042 -1.926 1.125 -8.39157 3.8058 3.72109 2.0956 0.66 -0.3894 -9.93923e-016 6.36111e-015 5.96354e-016 5.0395 -0.0900159 2.4971 -1.23599 -0.359022 -1.3536 3.7921 -1.55199 1.4806 -11.669 5.47213 5.98015 1.4655 -1.808 0.960901 -6.91722 3.42653 3.44726 4.9141 -1.269 0.359102 -0.140604 -1.43662 3.80464 3.1477 -1.685 0.846202 -8.82761 4.60389 4.41 0.805499 -1.58501 0.795501 -12.4128 6.21907 6.34137 -1.7069 20.075 5.0056 0.869149 -0.000568882 -13.1929 -13.6458 -0.0470117 -4.849 50.5406 1.40549 48.1024 -28.3255 -0.975883 2.2888 4.24101 -1.50642 38.7454 -22.1583 -0.530006 10.8316 35.3501 -46.2062 38.5119 -0.786 0.112003 2.5817 -19.2123 49.9311 17.7821 -0.360107 -0.877992 4.2331 -0.51819 0.461497 -1.59082 -1.8127 -1.216 2.2227 -4.44365 5.02819 -15.268 -0.9571 1.114 1.7695 2.20695e-032 1.59028e-015 -7.95139e-016 -4.1246 0.48701 4.1451 -23.6186 3.40251 -15.5054 -3.4052 -1.45401 2.7682 39.498 10.0974 -9.27457 -1.4531 -1.795 1.2713 45.4781 10.9508 -11.1601 -5.6954 0.21 2.11841 -1.04233 5.48661 -10.0635 -3.9766 -1.54 2.3863 52.3088 13.5301 -14.1044 -1.4042 -1.926 1.125 44.0033 12.3923 -11.1855 -2.0956 0.66 -0.3894 2.20695e-032 1.59028e-015 -7.95139e-016 -5.03951 -0.0899894 2.4971 16.4925 0.275146 -5.65892 -3.7921 -1.55201 1.4806 37.3339 11.9097 -10.7861 -1.4655 -1.80801 0.9609 38.6321 12.1693 -11.2724 -4.91411 -1.26899 0.3592 24.6636 -0.263269 -2.07528 -3.1477 -1.68501 0.8462 30.5289 11.3152 -8.19427 -0.8055 -1.585 0.795499 30.4592 11.2959 -8.16992 8.367 -8.2066 0.598199 108.216 -55.6048 75.5038 2.19231 -43.463 -0.493206 -11.7285 88.5231 11.7939 0.733296 -45.8593 -2.6451 -1.51313 -10.8625 -14.4549 -8.367 -8.2066 0.598199 -5.59894 -44.4036 -28.3143 -2.19264 -43.463 -0.493468 92.2941 73.9437 -87.8825 -0.73331 -45.8594 -2.64507 -2.82479 -35.271 11.23 
-72.8033 69.0495 -1.39241 7.63475 -27.2642 106.996 -7.72091e-007 -1.186 -1.5018 4.29259 -2.61516 -0.801576 1.60684e-006 9.96399 0.2134 8.56178 -5.28278 -1.40723 4.13468e-007 13.134 -3.2573 8.56178 -5.28278 -1.40721 8.62026e-007 20.686 -1.6905 -0.39259 2.69333 -9.75351 -4.58542e-007 7.23801 -0.1237 26.7746 4.2934 6.43073 1.7069 20.075 5.0056 27.146 -0.966808 -15.1702 13.6458 -0.0470076 -4.849 -75.7602 12.4319 -18.4779 28.3255 -0.9759 2.2888 -14.6417 21.5736 -8.51668 22.1583 -0.529995 10.8316 33.3569 -2.76976 -38.4721 0.786003 0.111996 2.5817 10.2075 -3.53417 -3.5146 0.360098 -0.877997 4.2331 -6.62845 -0.0919352 -12.1072 1.8127 -1.21601 2.2227 -2.71697 -0.203836 -4.95099 0.9571 1.114 1.7695 9.93923e-017 -3.18055e-015 5.96354e-016 4.12461 0.486989 4.1451 -8.9269 7.8467 11.6487 3.4052 -1.45401 2.7682 -9.23357 3.71864 4.02938 1.4531 -1.795 1.2713 -10.8006 4.27253 4.75853 5.69541 0.209988 2.1184 -6.04867 6.06783 4.01634 3.9766 -1.53999 2.3863 -13.3776 5.7444 6.12692 1.4042 -1.926 1.125 -8.50273 3.85169 3.77328 2.0956 0.66 -0.3894 9.93923e-017 -3.18055e-015 5.96354e-016 5.0395 -0.0900115 2.4971 -1.96493 0.0289925 -0.912124 3.79211 -1.55199 1.4806 -11.8176 5.53203 6.06132 1.4655 -1.808 0.9609 -7.16935 3.54146 3.57854 4.9141 -1.269 0.359101 -1.03179 -0.976168 3.75577 3.1477 -1.685 0.846201 -9.07854 4.72179 4.54277 0.805499 -1.585 0.7955 -12.3638 6.19798 6.31447 -1.7069 20.075 5.0056 3.83556 -0.313634 -6.20924 -13.6458 -0.0470078 -4.849 49.5934 -0.24045 46.5007 -28.3255 -0.975891 2.2888 3.40206 -0.404763 33.4221 -22.1583 -0.530007 10.8316 33.6219 -40.5453 39.0759 -0.786002 0.112006 2.5817 -19.2123 49.9311 17.7821 -0.360106 -0.877992 4.2331 -0.518252 0.461544 -1.59079 -1.81269 -1.216 2.2227 -4.44366 5.02823 -15.268 -0.9571 1.114 1.7695 -3.18055e-015 3.18055e-015 -4.77083e-015 -4.1246 0.487011 4.1451 -23.6186 3.40255 -15.5054 -3.4052 -1.45401 2.7682 39.498 10.0974 -9.27457 -1.4531 -1.795 1.2713 45.4781 10.9508 -11.1601 -5.69541 0.210002 2.1184 -1.04225 5.48643 -10.0635 -3.9766 -1.54 2.3863 52.3088 13.53 -14.1043 -1.4042 -1.926 1.125 44.0033 12.3924 -11.1855 -2.0956 0.66 -0.3894 -3.18055e-015 3.18055e-015 -4.77083e-015 -5.03951 -0.0899875 2.4971 16.4925 0.275182 -5.65894 -3.7921 -1.55201 1.4806 37.3339 11.9097 -10.7861 -1.4655 -1.808 0.9609 38.6321 12.1693 -11.2724 -4.91411 -1.26899 0.3592 24.6636 -0.263197 -2.07532 -3.1477 -1.68501 0.846198 30.5289 11.3152 -8.19428 -0.8055 -1.585 0.7955 30.4592 11.2959 -8.16991 8.36699 -8.20659 0.598202 102.582 -53.7731 70.4462 2.19231 -43.463 -0.493208 -176.155 86.3235 176.389 0.733299 -45.8593 -2.6451 0.782721 -13.9084 -13.7074 -8.367 -8.2066 0.598203 -8.80478 -41.8071 -25.8717 -2.19218 -43.463 -0.492965 105.503 72.9605 -100.866 -0.733305 -45.8593 -2.64512 -4.15052 -36.3529 12.7806 
